 <svg
          width="23"
          height="22"
          viewBox="0 0 374 320"
          fill="none"
          xmlns="http://www.w3.org/2000/svg"
          className="overflow-visible"
        >
          <g id="Group 70">
            <g id="Hat">
              <path
                id="Vector 50"
                d="M44 143L77 143L77 177L66 177L66 231L55 231L55 286L66 286L66 297L88 297L88 309L131.5 309L131.5 319.5L241.5 319.5L241.5 309L285.5 309L285.5 297L307 297L307 286.5L318.5 286.5L318.5 232.5L307 232.5L307 176.5L297 176.5L297 143.5L329.5 143.5L329.5 132.5L351 132.5L351 121L363 121L363 110L374 110L374 77L361.5 77L361.5 66L351 66L351 55.5L340.5 55.5L340.5 44.5L329.5 44.5L329.5 34L307 34L307 22.5L285 22.5L285 12L252 12L252 -1.06656e-05L120.5 -2.21617e-05L120.5 11L88 11L88 21.5L65.5 21.5L65.5 33L44 33L44 43.5L33 43.5L33 55L21.5 55L21.5 66L11 66L11 78L2.11126e-05 78L1.83588e-05 109.5L11 109.5L11 121L21.5 121L21.5 131.5L44 131.5L44 143Z"
                fill="white"
              />
              <path
                id="Vector 51"
                d="M284 133L297 133L297 87.5L274.5 87.5L274.5 76.5L252.5 76.5L252.5 65L120 65L120 75.5L98 75.5L98 87L76.5 87L76.5 133L89 133L89 121.5L100 121.5L100 111L133 111L133 99.5L240 99.5L240 110.5L273 110.5L273 122L284 122L284 133Z"
                fill="black"
              />
            </g>
          </g>
        </svg>