<svg width="22" height="22" viewBox="0 0 22 22" fill="none" xmlns="http://www.w3.org/2000/svg">
<g id="Group 3">
<path id="Subtract" d="M9.81421 0C16.9454 7.26882e-05 21.4021 5.30432 21.4021 11.6689V19.0938C21.4021 20.1545 20.8676 21.2157 19.9763 21.2158C19.0851 21.2158 18.5501 20.1547 17.6589 20.1543C16.7675 20.1543 16.232 21.2158 15.3406 21.2158C14.4493 21.2156 13.9145 20.1543 13.0232 20.1543C12.1319 20.1543 11.597 21.2156 10.7058 21.2158C9.8144 21.2158 9.27886 20.1543 8.38745 20.1543C7.49625 20.1546 6.96136 21.2158 6.07007 21.2158C5.17877 21.2158 4.64394 20.1545 3.75269 20.1543C2.86127 20.1543 2.32574 21.2158 1.43433 21.2158C0.543201 21.2154 0.00854492 20.1543 0.00854492 19.0938V11.6689C0.00854492 5.30427 4.46574 0 9.81421 0ZM8.95386 7.10254C7.67384 7.10254 6.6355 8.13991 6.6355 9.41992C6.63561 10.6998 7.67391 11.7373 8.95386 11.7373C10.2336 11.7371 11.2711 10.6997 11.2712 9.41992C11.2712 8.14006 10.2337 7.10278 8.95386 7.10254ZM16.6775 7.10254C15.3975 7.10256 14.3601 8.13992 14.3601 9.41992C14.3602 10.6998 15.3976 11.7373 16.6775 11.7373C17.9574 11.7373 18.9948 10.6998 18.9949 9.41992C18.9949 8.13991 17.9575 7.10254 16.6775 7.10254Z" fill="black"/>
</g>
</svg>
